<?xml version="1.0" encoding="UTF-8" standalone="no"?>
<!DOCTYPE svg PUBLIC "-//W3C//DTD SVG 1.1//EN"
 "http://www.w3.org/Graphics/SVG/1.1/DTD/svg11.dtd">
<!-- Generated by graphviz version 2.43.0 (0)
 -->
<!-- Title: Graphical Class Hierarchy Pages: 1 -->
<svg width="836pt" height="264pt"
 viewBox="0.00 0.00 836.00 263.50" xmlns="http://www.w3.org/2000/svg" xmlns:xlink="http://www.w3.org/1999/xlink">
<g id="graph0" class="graph" transform="scale(1 1) rotate(0) translate(4 259.5)">
<title>Graphical Class Hierarchy</title>
<!-- Node0 -->
<g id="Node000000" class="node">
<title>Node0</title>
<g id="a_Node000000"><a xlink:href="classmlir_1_1DialectInterface.html" target="_top" xlink:title="This class represents an interface overridden for a single dialect.">
<polygon fill="white" stroke="#666666" points="120,-164.5 0,-164.5 0,-145.5 120,-145.5 120,-164.5"/>
<text text-anchor="middle" x="60" y="-152.5" font-family="Helvetica,sans-Serif" font-size="10.00">mlir::DialectInterface</text>
</a>
</g>
</g>
<!-- Node1 -->
<g id="Node000001" class="node">
<title>Node1</title>
<g id="a_Node000001"><a xlink:href="classmlir_1_1detail_1_1DialectInterfaceBase.html" target="_top" xlink:title=" ">
<polygon fill="white" stroke="#666666" points="369,-170 156,-170 156,-140 369,-140 369,-170"/>
<text text-anchor="start" x="164" y="-158" font-family="Helvetica,sans-Serif" font-size="10.00">mlir::detail::DialectInterface</text>
<text text-anchor="middle" x="262.5" y="-147" font-family="Helvetica,sans-Serif" font-size="10.00">Base&lt; ConcreteType, DialectInterface &gt;</text>
</a>
</g>
</g>
<!-- Node0&#45;&gt;Node1 -->
<g id="edge791_Node000000_Node000001" class="edge">
<title>Node0&#45;&gt;Node1</title>
<g id="a_edge791_Node000000_Node000001"><a xlink:title=" ">
<path fill="none" stroke="#63b8ff" d="M130.08,-155C138.44,-155 147.11,-155 155.84,-155"/>
<polygon fill="#63b8ff" stroke="#63b8ff" points="130.07,-151.5 120.07,-155 130.07,-158.5 130.07,-151.5"/>
</a>
</g>
</g>
<!-- Node2 -->
<g id="Node000002" class="node">
<title>Node2</title>
<g id="a_Node000002"><a xlink:href="classmlir_1_1BytecodeDialectInterface.html" target="_top" xlink:title=" ">
<polygon fill="white" stroke="#666666" points="577,-255.5 411,-255.5 411,-236.5 577,-236.5 577,-255.5"/>
<text text-anchor="middle" x="494" y="-243.5" font-family="Helvetica,sans-Serif" font-size="10.00">mlir::BytecodeDialectInterface</text>
</a>
</g>
</g>
<!-- Node1&#45;&gt;Node2 -->
<g id="edge792_Node000001_Node000002" class="edge">
<title>Node1&#45;&gt;Node2</title>
<g id="a_edge792_Node000001_Node000002"><a xlink:title=" ">
<path fill="none" stroke="#63b8ff" d="M297.14,-175.25C325.14,-191.33 366.5,-213.31 405,-227 415.46,-230.72 426.88,-233.84 437.93,-236.4"/>
<polygon fill="#63b8ff" stroke="#63b8ff" points="298.59,-172.05 288.18,-170.05 295.07,-178.1 298.59,-172.05"/>
</a>
</g>
</g>
<!-- Node3 -->
<g id="Node000003" class="node">
<title>Node3</title>
<g id="a_Node000003"><a xlink:href="classmlir_1_1ConvertToEmitCPatternInterface.html" target="_top" xlink:title=" ">
<polygon fill="white" stroke="#666666" points="571.5,-218 416.5,-218 416.5,-188 571.5,-188 571.5,-218"/>
<text text-anchor="start" x="424.5" y="-206" font-family="Helvetica,sans-Serif" font-size="10.00">mlir::ConvertToEmitCPattern</text>
<text text-anchor="middle" x="494" y="-195" font-family="Helvetica,sans-Serif" font-size="10.00">Interface</text>
</a>
</g>
</g>
<!-- Node1&#45;&gt;Node3 -->
<g id="edge793_Node000001_Node000003" class="edge">
<title>Node1&#45;&gt;Node3</title>
<g id="a_edge793_Node000001_Node000003"><a xlink:title=" ">
<path fill="none" stroke="#63b8ff" d="M345.57,-172.17C370.31,-177.34 397.26,-182.98 421.27,-188"/>
<polygon fill="#63b8ff" stroke="#63b8ff" points="345.99,-168.68 335.49,-170.06 344.56,-175.53 345.99,-168.68"/>
</a>
</g>
</g>
<!-- Node4 -->
<g id="Node000004" class="node">
<title>Node4</title>
<g id="a_Node000004"><a xlink:href="classmlir_1_1ConvertToLLVMPatternInterface.html" target="_top" xlink:title="Base class for dialect interfaces providing translation to LLVM IR.">
<polygon fill="white" stroke="#666666" points="569.5,-170 418.5,-170 418.5,-140 569.5,-140 569.5,-170"/>
<text text-anchor="start" x="426.5" y="-158" font-family="Helvetica,sans-Serif" font-size="10.00">mlir::ConvertToLLVMPattern</text>
<text text-anchor="middle" x="494" y="-147" font-family="Helvetica,sans-Serif" font-size="10.00">Interface</text>
</a>
</g>
</g>
<!-- Node1&#45;&gt;Node4 -->
<g id="edge794_Node000001_Node000004" class="edge">
<title>Node1&#45;&gt;Node4</title>
<g id="a_edge794_Node000001_Node000004"><a xlink:title=" ">
<path fill="none" stroke="#63b8ff" d="M379.31,-155C392.56,-155 405.8,-155 418.31,-155"/>
<polygon fill="#63b8ff" stroke="#63b8ff" points="379.18,-151.5 369.18,-155 379.18,-158.5 379.18,-151.5"/>
</a>
</g>
</g>
<!-- Node5 -->
<g id="Node000005" class="node">
<title>Node5</title>
<g id="a_Node000005"><a xlink:href="classmlir_1_1LLVMImportDialectInterface.html" target="_top" xlink:title="Base class for dialect interfaces used to import LLVM IR.">
<polygon fill="white" stroke="#666666" points="583,-121.5 405,-121.5 405,-102.5 583,-102.5 583,-121.5"/>
<text text-anchor="middle" x="494" y="-109.5" font-family="Helvetica,sans-Serif" font-size="10.00">mlir::LLVMImportDialectInterface</text>
</a>
</g>
</g>
<!-- Node1&#45;&gt;Node5 -->
<g id="edge795_Node000001_Node000005" class="edge">
<title>Node1&#45;&gt;Node5</title>
<g id="a_edge795_Node000001_Node000005"><a xlink:title=" ">
<path fill="none" stroke="#63b8ff" d="M353.85,-138.07C383.87,-132.45 416.23,-126.38 442.18,-121.52"/>
<polygon fill="#63b8ff" stroke="#63b8ff" points="352.95,-134.68 343.77,-139.96 354.24,-141.56 352.95,-134.68"/>
</a>
</g>
</g>
<!-- Node6 -->
<g id="Node000006" class="node">
<title>Node6</title>
<g id="a_Node000006"><a xlink:href="classmlir_1_1ResourceBlobManagerDialectInterface.html" target="_top" xlink:title="This class implements a dialect interface that provides common functionality for interacting with a r...">
<polygon fill="white" stroke="#666666" points="570,-84 418,-84 418,-54 570,-54 570,-84"/>
<text text-anchor="start" x="426" y="-72" font-family="Helvetica,sans-Serif" font-size="10.00">mlir::ResourceBlobManager</text>
<text text-anchor="middle" x="494" y="-61" font-family="Helvetica,sans-Serif" font-size="10.00">DialectInterface</text>
</a>
</g>
</g>
<!-- Node1&#45;&gt;Node6 -->
<g id="edge796_Node000001_Node000006" class="edge">
<title>Node1&#45;&gt;Node6</title>
<g id="a_edge796_Node000001_Node000006"><a xlink:title=" ">
<path fill="none" stroke="#63b8ff" d="M304.5,-135.64C332.45,-122.86 370.51,-106.28 405,-94 414.88,-90.49 425.51,-87.12 435.85,-84.06"/>
<polygon fill="#63b8ff" stroke="#63b8ff" points="302.68,-132.62 295.06,-139.99 305.61,-138.98 302.68,-132.62"/>
</a>
</g>
</g>
<!-- Node7 -->
<g id="Node000007" class="node">
<title>Node7</title>
<g id="a_Node000007"><a xlink:href="classmlir_1_1ResourceBlobManagerDialectInterfaceBase.html" target="_top" xlink:title=" ">
<polygon fill="white" stroke="#666666" points="828,-148.5 619,-148.5 619,-107.5 828,-107.5 828,-148.5"/>
<text text-anchor="start" x="627" y="-136.5" font-family="Helvetica,sans-Serif" font-size="10.00">mlir::ResourceBlobManager</text>
<text text-anchor="start" x="627" y="-125.5" font-family="Helvetica,sans-Serif" font-size="10.00">DialectInterfaceBase&lt; DialectResource</text>
<text text-anchor="middle" x="723.5" y="-114.5" font-family="Helvetica,sans-Serif" font-size="10.00">BlobHandle&lt; DialectT &gt; &gt;</text>
</a>
</g>
</g>
<!-- Node6&#45;&gt;Node7 -->
<g id="edge797_Node000006_Node000007" class="edge">
<title>Node6&#45;&gt;Node7</title>
<g id="a_edge797_Node000006_Node000007"><a xlink:title=" ">
<path fill="none" stroke="#63b8ff" d="M562.84,-86.59C588.09,-93.14 616.96,-100.63 643.15,-107.42"/>
<polygon fill="#63b8ff" stroke="#63b8ff" points="563.55,-83.16 553,-84.04 561.8,-89.94 563.55,-83.16"/>
</a>
</g>
</g>
<!-- Node8 -->
<g id="Node000008" class="node">
<title>Node8</title>
<g id="a_Node000008"><a xlink:href="classmlir_1_1ResourceBlobManagerDialectInterfaceBase.html" target="_top" xlink:title=" ">
<polygon fill="white" stroke="#666666" points="826.5,-89.5 620.5,-89.5 620.5,-48.5 826.5,-48.5 826.5,-89.5"/>
<text text-anchor="start" x="628.5" y="-77.5" font-family="Helvetica,sans-Serif" font-size="10.00">mlir::ResourceBlobManager</text>
<text text-anchor="start" x="628.5" y="-66.5" font-family="Helvetica,sans-Serif" font-size="10.00">DialectInterfaceBase&lt; DenseResource</text>
<text text-anchor="middle" x="723.5" y="-55.5" font-family="Helvetica,sans-Serif" font-size="10.00">ElementsHandle &gt;</text>
</a>
</g>
</g>
<!-- Node6&#45;&gt;Node8 -->
<g id="edge798_Node000006_Node000008" class="edge">
<title>Node6&#45;&gt;Node8</title>
<g id="a_edge798_Node000006_Node000008"><a xlink:title=" ">
<path fill="none" stroke="#63b8ff" d="M580.42,-69C593.42,-69 606.94,-69 620.26,-69"/>
<polygon fill="#63b8ff" stroke="#63b8ff" points="580.12,-65.5 570.12,-69 580.12,-72.5 580.12,-65.5"/>
</a>
</g>
</g>
<!-- Node9 -->
<g id="Node000009" class="node">
<title>Node9</title>
<g id="a_Node000009"><a xlink:href="classmlir_1_1ResourceBlobManagerDialectInterfaceBase.html" target="_top" xlink:title="This class provides a base class for dialects implementing the resource blob interface.">
<polygon fill="white" stroke="#666666" points="814.5,-30 632.5,-30 632.5,0 814.5,0 814.5,-30"/>
<text text-anchor="start" x="640.5" y="-18" font-family="Helvetica,sans-Serif" font-size="10.00">mlir::ResourceBlobManager</text>
<text text-anchor="middle" x="723.5" y="-7" font-family="Helvetica,sans-Serif" font-size="10.00">DialectInterfaceBase&lt; HandleT &gt;</text>
</a>
</g>
</g>
<!-- Node6&#45;&gt;Node9 -->
<g id="edge799_Node000006_Node000009" class="edge">
<title>Node6&#45;&gt;Node9</title>
<g id="a_edge799_Node000006_Node000009"><a xlink:title=" ">
<path fill="none" stroke="#63b8ff" d="M568.13,-51.64C597.42,-44.69 630.84,-36.76 659.07,-30.05"/>
<polygon fill="#63b8ff" stroke="#63b8ff" points="567.29,-48.24 558.37,-53.96 568.91,-55.05 567.29,-48.24"/>
</a>
</g>
</g>
</g>
</svg>
